<svg width="350" height="400" viewBox="0 0 350 400" fill="none" xmlns="http://www.w3.org/2000/svg">
<g clip-path="url(#clip0_12_30)">
<path d="M271.046 168.017C250.06 168.017 251.358 214.717 241.456 235.867C239.794 239.383 235.258 238.933 234.165 235.133C222.921 195.733 228.054 100 197.56 100C165.637 100 173.527 223.883 161.102 274.367C160.183 278.2 155.546 278.533 154.19 274.833C141.065 238.817 142.537 160.25 117.702 160.25C92.0062 160.25 94.1937 226.067 84.1312 252.583C82.8042 256.133 78.4146 256.25 76.9417 252.75C69.6062 235.267 67.2583 200 39.55 200H7.27708C3.26667 200 0 203.733 0 208.317C0 212.9 3.26667 216.667 7.27708 216.667H39.55C62.475 216.667 54.6875 274.733 81.1708 274.733C105.729 274.733 103.075 211.567 113.59 183.567C114.873 180.1 119.16 180.2 120.385 183.667C132.125 217.783 131.906 300 158.9 300C189.19 300 178.398 169.067 194.527 122.983C195.737 119.467 200.127 119.283 201.512 122.783C216.519 160.283 208.615 258.217 235.696 258.217C259.598 258.217 261.027 213.117 268.217 190.917C269.398 187.383 273.656 187.133 275.129 190.467C282.654 207.15 287.467 233.333 310.129 233.333H342.723C346.733 233.333 350 229.6 350 225.017C350 220.417 346.733 216.683 342.723 216.683H310.129C290.835 216.683 293.84 168.017 271.046 168.017Z" fill="white"/>
</g>
<defs>
<clipPath id="clip0_12_30">
<rect width="350" height="400" fill="white"/>
</clipPath>
</defs>
</svg>
