<svg width="250" height="110" viewBox="0 0 250 110" fill="none" xmlns="http://www.w3.org/2000/svg">
<path d="M246.5 72.5C246.5 75.9808 244.133 79.9994 238.152 84.2419C232.262 88.4199 223.511 92.3256 212.383 95.6641C190.171 102.328 159.275 106.5 125 106.5C90.7247 106.5 59.8294 102.328 37.6174 95.6641C26.4891 92.3256 17.7384 88.4199 11.848 84.2419C5.8666 79.9994 3.5 75.9808 3.5 72.5C3.5 69.0192 5.8666 65.0006 11.848 60.7581C17.7384 56.5801 26.4891 52.6744 37.6174 49.3359C59.8294 42.6723 90.7247 38.5 125 38.5C159.275 38.5 190.171 42.6723 212.383 49.3359C223.511 52.6744 232.262 56.5801 238.152 60.7581C244.133 65.0006 246.5 69.0192 246.5 72.5Z" fill="white" stroke="#264038" stroke-width="7"/>
<path d="M246.5 58.5C246.5 61.9808 244.133 65.9994 238.152 70.2419C232.262 74.4199 223.511 78.3256 212.383 81.6641C190.171 88.3277 159.275 92.5 125 92.5C90.7247 92.5 59.8294 88.3277 37.6174 81.6641C26.4891 78.3256 17.7384 74.4199 11.848 70.2419C5.8666 65.9994 3.5 61.9808 3.5 58.5C3.5 55.0192 5.8666 51.0006 11.848 46.7581C17.7384 42.5801 26.4891 38.6744 37.6174 35.3359C59.8294 28.6723 90.7247 24.5 125 24.5C159.275 24.5 190.171 28.6723 212.383 35.3359C223.511 38.6744 232.262 42.5801 238.152 46.7581C244.133 51.0006 246.5 55.0192 246.5 58.5Z" fill="white" stroke="#264038" stroke-width="7"/>
<rect x="122.5" width="4.16667" height="35" rx="2.08333" fill="white"/>
<path d="M145.833 43C145.833 39.717 145.294 36.4661 144.247 33.4329C143.2 30.3998 141.666 27.6438 139.731 25.3223C137.797 23.0009 135.5 21.1594 132.973 19.903C130.445 18.6466 127.736 18 125 18C122.264 18 119.555 18.6466 117.027 19.903C114.5 21.1594 112.203 23.0009 110.269 25.3223C108.334 27.6438 106.799 30.3998 105.752 33.4329C104.705 36.4661 104.167 39.717 104.167 43L113.149 43C113.149 41.1324 113.455 39.2831 114.051 37.5576C114.646 35.8322 115.519 34.2644 116.62 32.9438C117.72 31.6232 119.027 30.5757 120.465 29.861C121.903 29.1463 123.444 28.7784 125 28.7784C126.556 28.7784 128.097 29.1463 129.535 29.861C130.973 30.5757 132.28 31.6232 133.38 32.9438C134.481 34.2644 135.354 35.8322 135.949 37.5576C136.545 39.2831 136.851 41.1324 136.851 43H145.833Z" fill="white"/>
</svg>
