<svg width="800" height="746" viewBox="0 0 800 746" fill="none" xmlns="http://www.w3.org/2000/svg">
<path d="M786.572 337.174L665.328 215.93V75.8733C665.328 50.549 644.807 30.0257 619.445 30.0257C594.142 30.0257 573.62 50.549 573.62 75.8733V124.224L483.345 33.945C438.712 -10.664 361.109 -10.5849 316.578 34.0257L13.4228 337.174C-4.47315 355.106 -4.47315 384.12 13.4228 402.024C31.3267 419.951 60.3975 419.951 78.295 402.024L381.421 98.8673C391.296 89.0441 408.701 89.0441 418.524 98.8382L721.702 402.024C730.692 410.988 742.412 415.447 754.13 415.447C765.872 415.447 777.612 410.983 786.574 402.024C804.476 384.122 804.476 355.107 786.572 337.174Z" fill="#485E08"/>
<path d="M415.926 185.897C407.118 177.094 392.857 177.094 384.076 185.897L117.42 452.474C113.21 456.682 110.823 462.428 110.823 468.424V662.855C110.823 708.48 147.817 745.471 193.44 745.471H325.461V541.014H474.511V745.471H606.535C652.156 745.471 689.149 708.48 689.149 662.857V468.424C689.149 462.428 686.784 456.682 682.553 452.474L415.926 185.897Z" fill="#485E08"/>
</svg>
