<svg width="260" height="195" viewBox="0 0 260 195" fill="none" xmlns="http://www.w3.org/2000/svg">
<path d="M249 36.808C249 37.8209 248.065 40.4496 242.084 44.0479C236.475 47.4222 227.96 50.673 216.909 53.485C194.898 59.0859 164.169 62.6161 130 62.6161C95.8314 62.6161 65.1019 59.0859 43.0913 53.485C32.0404 50.673 23.525 47.4222 17.9162 44.0479C11.9353 40.4496 11 37.8209 11 36.808C11 35.7952 11.9353 33.1664 17.9162 29.5682C23.525 26.1939 32.0404 22.9431 43.0913 20.1311C65.1019 14.5301 95.8314 11 130 11C164.169 11 194.898 14.5301 216.909 20.1311C227.96 22.9431 236.475 26.1939 242.084 29.5682C248.065 33.1664 249 35.7952 249 36.808Z" stroke="white" stroke-width="12"/>
<ellipse cx="130" cy="163.192" rx="125" ry="31.808" fill="white"/>
<path d="M5 37.2321L50 58.8044L129.583 66.9196L210.833 58.8044L255 37.2321V164.464H5V37.2321Z" fill="white"/>
<path d="M130 71.1161C164.663 71.1161 196.13 67.5433 219.005 61.7225C230.423 58.8169 239.842 55.3165 246.466 51.3314C252.935 47.4396 257.5 42.6077 257.5 36.808C257.5 31.0084 252.935 26.1765 246.466 22.2847C239.842 18.2996 230.423 14.7991 219.005 11.8936C196.13 6.07278 164.663 2.5 130 2.5C95.3367 2.5 63.8698 6.07278 40.9951 11.8936C29.5768 14.7991 20.1583 18.2996 13.5343 22.2847C7.06547 26.1765 2.5 31.0084 2.5 36.808C2.5 42.6077 7.06547 47.4396 13.5343 51.3314C20.1583 55.3165 29.5768 58.8169 40.9951 61.7225C63.8698 67.5433 95.3367 71.1161 130 71.1161Z" stroke="#264038" stroke-width="5"/>
<path d="M125.833 79.5684C125.833 77.2673 127.699 75.4018 130 75.4018V75.4018C132.301 75.4018 134.167 77.2673 134.167 79.5685V177.262C134.167 179.563 132.301 181.429 130 181.429V181.429C127.699 181.429 125.833 179.563 125.833 177.262V79.5684Z" fill="#264038"/>
<path d="M210 72.7827C210 70.4815 211.865 68.6161 214.167 68.6161V68.6161C216.468 68.6161 218.333 70.4816 218.333 72.7827V170.476C218.333 172.777 216.468 174.643 214.167 174.643V174.643C211.865 174.643 210 172.777 210 170.476V72.7827Z" fill="#264038"/>
<path d="M41.6667 72.7827C41.6667 70.4815 43.5321 68.6161 45.8333 68.6161V68.6161C48.1345 68.6161 50 70.4816 50 72.7827V170.476C50 172.777 48.1345 174.643 45.8333 174.643V174.643C43.5321 174.643 41.6667 172.777 41.6667 170.476V72.7827Z" fill="#264038"/>
<path d="M255 150.045C255 167.612 199.036 181.853 130 181.853C60.9644 181.853 5 167.612 5 150.045" stroke="#264038" stroke-width="7" stroke-linecap="round"/>
</svg>
